<svg width="15" height="9" viewBox="0 0 15 9" fill="none" xmlns="http://www.w3.org/2000/svg">
<path d="M14.2769 4.40508C14.257 4.36055 13.7777 3.29824 12.7049 2.22539C11.7111 1.23164 10.0019 0.046875 7.49998 0.046875C4.99803 0.046875 3.28885 1.23164 2.2951 2.22539C1.22225 3.29824 0.742949 4.36055 0.723027 4.40508C0.70998 4.43513 0.703247 4.46754 0.703247 4.50029C0.703247 4.53305 0.70998 4.56546 0.723027 4.59551C0.742949 4.64063 1.22225 5.70234 2.2951 6.7752C3.29119 7.77129 4.99861 8.95312 7.49998 8.95312C10.0013 8.95312 11.7111 7.76895 12.7049 6.7752C13.7777 5.70234 14.257 4.64063 14.2769 4.59551C14.29 4.56546 14.2967 4.53305 14.2967 4.50029C14.2967 4.46754 14.29 4.43513 14.2769 4.40508ZM12.3609 6.45586C11.0092 7.80352 9.37264 8.48438 7.49764 8.48438C5.62264 8.48438 3.98846 7.80176 2.63435 6.45586C2.0582 5.88126 1.57365 5.22162 1.19764 4.5C1.57435 3.77821 2.0597 3.11856 2.6367 2.54414C3.9908 1.19824 5.62498 0.515625 7.49998 0.515625C9.37498 0.515625 11.0092 1.19824 12.3633 2.54414C12.9402 3.11862 13.4255 3.77826 13.8023 4.5C13.4256 5.22178 12.9403 5.88142 12.3633 6.45586H12.3609ZM7.49998 1.92188C6.99008 1.92188 6.49162 2.07308 6.06765 2.35637C5.64368 2.63966 5.31324 3.0423 5.1181 3.51339C4.92297 3.98448 4.87192 4.50286 4.97139 5.00297C5.07087 5.50307 5.31641 5.96245 5.67697 6.32301C6.03753 6.68357 6.49691 6.92911 6.99701 7.02859C7.49712 7.12806 8.0155 7.07701 8.48659 6.88188C8.95768 6.68674 9.36032 6.3563 9.64361 5.93233C9.9269 5.50836 10.0781 5.0099 10.0781 4.5C10.0773 3.81648 9.80546 3.16117 9.32213 2.67785C8.83881 2.19452 8.1835 1.92265 7.49998 1.92188ZM7.49998 6.60938C7.08279 6.60938 6.67496 6.48566 6.32807 6.25388C5.98119 6.0221 5.71082 5.69266 5.55117 5.30722C5.39152 4.92178 5.34975 4.49766 5.43114 4.08848C5.51253 3.6793 5.71343 3.30345 6.00843 3.00845C6.30343 2.71345 6.67928 2.51255 7.08846 2.43116C7.49764 2.34977 7.92176 2.39154 8.3072 2.55119C8.69264 2.71084 9.02208 2.98121 9.25386 3.32809C9.48564 3.67498 9.60935 4.08281 9.60935 4.5C9.60935 5.05944 9.38712 5.59597 8.99153 5.99155C8.59595 6.38714 8.05942 6.60938 7.49998 6.60938Z" fill="#333333"/>
</svg>
